# xmcd CD database file
#
# Track frame offsets:
#	182
#	9237
#	19117
#	29900
#	40665
#	52067
#	61837
#	74965
#	85232
#	96045
#	107972
#	118850
#	129325
#	137825
#
# Disc length: 1975 seconds
#
# Revision: 2
# Processed by: cddbd v1.4PL0 Copyright (c) Steve Scherf et al.
# Submitted via: CDex 1.51
#
DISCID=c807b50e
DTITLE=Bob Wills - TheTiffany Transcriptions Vol. 7
DYEAR=1947
DGENRE=Country
TTITLE0=Keep Knockin' (But You Can't Come In)
TTITLE1=Honeysuckle Rose
TTITLE2=Worried Mind
TTITLE3=Okie Boogie
TTITLE4=C-Jam Blues
TTITLE5=I Can't Go On This Way
TTITLE6=Sweet Moments
TTITLE7=My Gal Sal
TTITLE8=I'm Gonna Be Boss From Now On
TTITLE9=Lonesome Hearted Blues
TTITLE10=Joe's Place
TTITLE11=Sugar Blues
TTITLE12=Too Long
TTITLE13=Tea For Two
EXTD=YEAR: 1947
EXTT0=
EXTT1=
EXTT2=
EXTT3=
EXTT4=
EXTT5=
EXTT6=
EXTT7=
EXTT8=
EXTT9=
EXTT10=
EXTT11=
EXTT12=
EXTT13=
PLAYORDER=
